<svg xmlns="http://www.w3.org/2000/svg" viewBox="0 0 215.01 252.007"><defs><style>.cls-1{fill:#70cbce;}.cls-2{fill:#4b4099;}</style></defs><g id="Shape_5_Image" data-name="Shape 5 Image"><path class="cls-1" d="M200.852,299.7a116.459,116.459,0,0,0-25,17.372,17.112,17.112,0,0,0-5.689,12.766v34.785a2.849,2.849,0,0,0,4.7,2.167l29.1-24.827a2.846,2.846,0,0,0,1-2.167V302.258A2.847,2.847,0,0,0,200.852,299.7Z" transform="translate(-133.597 -115.471)"/></g><g id="Shape_2_Image" data-name="Shape 2 Image"><path class="cls-2" d="M170.16,322.444" transform="translate(-133.597 -115.471)"/><path class="cls-1" d="M205.2,195.2v18.929a10.9,10.9,0,0,1-7.263,10.275L169.92,234.32v-8.974a23.229,23.229,0,0,1,14.329-21.456L205.2,195.2" transform="translate(-133.597 -115.471)"/><path class="cls-1" d="M260.378,167.982a.789.789,0,0,1-.357,1.473c-7.7.267-31.073,2.595-66.243,19.582,0,0-63.87,28.614-52.593-18.066a63.194,63.194,0,0,1,11.467-23.783c5.456-7.053,13.945-15.693,25.611-21.022a1.178,1.178,0,0,1,1.194,2.015c-7.061,5.194-16.8,13.89-20.917,24.675-4.515,11.822,4.406,24.685,17.056,24.339,5.242-.143,11.916-1.4,20.4-4.51,2.421-.887,4.677-2.181,7.059-3.169C217.285,163.612,237.152,154.67,260.378,167.982Z" transform="translate(-133.597 -115.471)"/><path class="cls-1" d="M176.986,167.228a6.07,6.07,0,0,1-7.193-6.481c.666-7.278,5.471-19.03,25.614-31.71,33.186-20.889,100.741-23.259,130.963,33.778,0,0,22.371,42.518-12.74,77.185,0,0-12.569,13.37-42.532,24.107-2.649.949-5.336,1.787-8.037,2.573-14.218,4.141-72.389,21.974-91.8,41.935a.683.683,0,0,1-1.157-.643c1.844-7.149,12.164-29.1,69.894-44.565,0,0,53.389-15.824,66.37-35.259,0,0,19.111-22.815.3-55.852s-59.111-31.852-70.371-27.852c0,0,54.878-4.471,67.505,38.055a54.771,54.771,0,0,1-1.534,35.337,50.932,50.932,0,0,1-10.251,16.733.619.619,0,0,1-.98-.744c4.408-7.268,11.324-22.946,6.084-44.047-6.828-27.5-28.383-44.358-64.522-38.442a73.977,73.977,0,0,0-13.542,3.646C210.716,158.047,193.175,164.108,176.986,167.228Z" transform="translate(-133.597 -115.471)"/><path class="cls-1" d="M294.928,207.2c-.247,7.685-3.447,29.474-30.855,40.085-1.034.4-2.089.737-3.153,1.051-10.283,3.043-69.715,21.345-89.161,43.421-.5.568-1,1.133-1.523,1.68-3.42,3.576-18.8,21.483-10.5,46.565a.819.819,0,0,1-1.348.84c-9.044-8.777-38.379-41.047-17.354-72.48a53.093,53.093,0,0,1,14-13.965c11.507-7.983,38.158-23.181,80.483-28.757,6.23-.82,12.5-1.3,18.778-1.62,8.73-.448,31.775-2.976,39.47-17.129A.62.62,0,0,1,294.928,207.2Z" transform="translate(-133.597 -115.471)"/><path class="cls-1" d="M220.568,289.669C227.422,286.9,250.933,277.575,260,276.5a4.425,4.425,0,0,1,3.657,1.28c8.426,8.464,55.264,54.965,83.991,72.015a1.976,1.976,0,0,1-.738,3.651c-15.148,2.233-58.327,5.281-91.128-25l-35.673-36.526A1.381,1.381,0,0,1,220.568,289.669Z" transform="translate(-133.597 -115.471)"/></g></svg>